<?xml version="1.0" encoding="UTF-8"?>
<svg id="_レイヤー_1" data-name=" レイヤー 1" xmlns="http://www.w3.org/2000/svg" viewBox="0 0 515.1 531.95">
  <defs>
    <style>
      .cls-1 {
        fill: none;
        stroke: #a8d8b9;
        stroke-miterlimit: 10;
        stroke-width: 2.33px;
      }

      .cls-2 {
        fill: #a8d8b9;
      }
    </style>
  </defs>
  <g>
    <path class="cls-2" d="M405.35,4.09c-2.5.77-4-1.19-4.37-1.39-1.07,1.72-.77,6.43-1.86,9,1.62,5.58,2.92,16.54,4.62,20.01-2.04,9.19-5.12,30.1-6.62,30.52-1.5.44-4.21,1.79-5.97,3.32-.08,5.06,1.61,16.8-.49,20.03-.74,1.14-3.66,2.83-5.9,3.03-2.43.21-3.13-1.65-4.02-2.99-1.44.7-2.81,1.76-3.79,1.53-.97-.23-10.86-7.19-11.85-6.27-.97.93-4.84,3.72-4.43,4.7.43.99,6.23,9.77,5.64,10.15s-5.98,6.26-6.39,7.37c-1.14-.2-2.9-.78-3.66-1.57-.53,1.9-3.43,3.82-3.74,4.42-.43.8-3.85-.7-4.98.06.85,6.34-2.26,12.58-3.05,13.88-1.66,2.65,5.71,8.6,9.02,12.89,1.18,1.52.59,6.41.01,6.72-.58.32-3.7,5.66-4.63,7.41-.08,4.4,2.13,7.14,6.21,8.9,0,0,3.04-3.92,6.81-4.92.21-1.88,1.27-6.36,6.16-10.06.85-.64,9.15,4.46,10.25,4.18.8-.21,4.18-2.52,6.02-4.49-.71-2.92-5.53-3.88-6.33-4.05-.78-.18-3.85-6.41-4.73-7.46-6.29-1.1-10.19-3.95-12.07-4.63-1.9-.68-1.26-3.29-.89-5,.38-1.71,6.04-9,11.12-7.79,2.08.49,6.27,10.35,6.79,11.66,4.69-4.31,12.16-11.37,18.25-12,1.84-.2,6.74.61,8.05,1.8,3.62,3.31,17.89,14.48,29.82,18.29,5.76,1.84,7.58,6.13,8.31,7.44.88-1.08,2.09-4.16,2.71-7.48.27-1.48-.12-7.76,2.29-12.45,3.31-6.42,19.83-21.49,25.87-21.75,1.39,1.98,2.43,2.32,4.13,2.28,1.92-.04,7.66.85,9.45-.56-.4-.47-2.7-.42-2.15-1.71.55-1.28,2.87-2.55,4.61-2.29,1.73.26.94,1.72-.71,2.21,1.22,1.14,6.73-2.26,7.47-2.1.72.17.08-2.37.87-2.46.78-.07,10.03-1.2,10.22-2.86.34-2.79,7.57-6.78,7.68-8.13-1.26-.56-2.83-.55-3.94-.68-1.13-.12-3.87,4.39-5.34,4.7s-3.78-1.98-4.65-2.8c-1.41-1.31-4.51-8.22.21-8.44-3.36-1.78-7.37-4.8-6.07-11.04.33-1.59,7.3-11.27,6.89-13.4-.41-2.14.65-3.5-1.38-5.14-1.89,3.61-13.21,15.32-15.29,16.49-.95.53-8.71-.77-11.3-1.73-2.6-.96-2.58-3.86-2.68-5.96-1.6-.29-9.23-1.88-10.57-1.78.12,1.18,2.48,2.85,1.14,3.16-2.64.61-7.12-1.83-4.89-2.23,1.04-.19,1.88-.36,1.9-.99-1.66-.63-5.12-1.71-8.69-3.97-21.38-13.52-27.39-34.18-38.75-44.09-1.39-1.21-3.8-4.13-3.82-3.49-.01.64.06,3.17-2.52,3.98v.02h0Z"/>
    <path class="cls-2" d="M165.08,412.67c.91,1.63,2.91,2.23,1.65,3.87.61.78,2.22,2.39,3.13,2.34.51-.03,4.96-2.63,5.97-4.11-2.99-4.25.26-7.31.82-7.83.81-.75,2.61-3.7,1.84-4.58-6.96,1.92-10.9,8.28-13.42,10.32h0Z"/>
    <path class="cls-2" d="M298.96,283.43c1.33-1.53,2.34-3.85,2.19-4.98-1.3-.22-1.96-.44-3.02.23s-2.36-.68-1.42-2.1c.71-1.1,2.21-3.32,2.41-5.21.06-.62-.59-2.02-1.31-1.71-1.22.53-6.45,5.95-7.54,7-2.26,2.17-1.07,6.48-.37,6.25.7-.24,2.55-2.18,3.18-1.26.95,1.4-2.24,1.82-2.4,2.6-.4,2.02-3.04,4.38-2.26,4.58,3.32.87,8.58-3.15,10.53-5.4h.01Z"/>
    <path class="cls-2" d="M371.25,167.05c.2.37,6.27-1.86,7.94-1.58.56.1,3-2.41,3.3-3.94.08-.44,1.64-.57,1.92.24,1.1,3.15-.06,9.89-1.44,12.82-.63,1.34-2.65,1.46-3.19.74-.48-.65-5.27-4.86-5.77-4.64-.49.21-1,5.01-1.63,5.34-.52.28-1.66,1.41-2.44.91-.8-.5-2.7-13.58-3.74-14.78-.58-.68-5.27-1.91-6.74-2.04-1.83,2.27-2.45,8.24-2.48,8.86-.08,1.52-.33,9.71-2.08,9.65-.63-.02-2.22,1.08-5.71.91-1.44,1.53-6.61,6.03-5.51,6.09,1.3.82,2.16,3.48,2.69,6.13.49,2.35.74,4.69.58,5.82-.02,5.21-3.72,10.42-4.53,10.91-.97.56-4.64-1.18-5.72-1.28-.72,1.31,2.1,7.06,2.77,7.22.68.14,3.12-2.01,5.87-1.56,1.52.24,2.75,6.86,2.43,7.75-.33.9-2.51,12.82-4.77,14.69-.39.33-1.31,3.73-2.59,7.62-1.79,5.49-4.07,11.99-4.56,12.37-1.86,1.44-4.74,5.41-6.66,8.84-1.22,2.17-2.05,4.12-2,5.08.23,4.18-2.34,11.72-5.91,13.25-3.57,1.52-13.32,4.73-15.17,8.6-1.92,4-8.08,12.62-13.49,17.23-3.93,3.34-5.79,5.02-9.21,3.73-1.79,1.73-8.26,4.07-13.48,5.73-3.58,1.15-6.59,1.98-6.97,2.05-.95.18-2.91,4.51-3.67,4.84-2.9,1.29-7.88.68-9.69-2.92l1.14-3.63c.93-2.17,1.56-4.49-.93-4.43-2.1.05-2.02-4.65-.91-5.27.91-.51,2.69-.05,3.29.17.96.34,7.65-7.74,8.73-7.37,1.08.38,2.65-4.09.42-3.98-4.59.24-20.11,4.51-20.24,6.29-.14,1.78-3.28,6.74-2.08,7.7,2.55,2.04,2.1,8.58,1.66,10.55s-13.59,16.35-14.91,17.25c-.4.27-.91.69-1.63,1.31-3.42,2.99-9.72,9.36-10.99,11.63-.56,1.02,5.81,11.84,4.52,12.96-1.29,1.13-2.54-2.63-4.16-4.4-1.34,1.37-1.19,3.9-1.54,4.88-2.57,1.05-6.6,4.89-12.34,4.21l-1.58-1.31c-.18-1.39-.26-3.64-1.07-3.54-1.13.13-3.13,3.42-5.44,3.62-1.54.13-3.1-4.79,1.74-6.69,1.22-.48-2.49-3.36-4.93-3.68-1.35-.18-6.15,2.43-8.69,3.72-.36-.19-.79-.38-1.29-.54-3.46-1.1-10.13-1.55-14.02-1.03-.36.31-.7.55-1.21.81-5.68,2.87-21.54,2.68-26.15.14-3.95,2.57-8.58,2.58-9.69.96l.62-1.8c.76-.67,1.72-.81,2.93-1.45-.83-.09-8.58-1.04-9.71-.91-1.14.14-13.71,3.69-14.91,4.14,1.57,1.56.87,3.78-.75,4.64-1.16.62-19.82,15.52-27.39,19.42-1.47.47-2.66,1.06-3.85,1.53-5.07,2.02-7.95,4.03-10.33,6.46-.74-.49-12.04-.77-13.09-1.04-.56-.15-3.45.93-3.22,1.63.22.69-1.34,9.33-1.22,9.67.27.86,1.02,3.84,1.58,5.18,1.58-.72,3.87-1.91,4.63-1.54.75.36,3.5,4.52,4.01,4.39,9.81-2.65,20.34,1.42,20.72,1.45.38.02,5.9,5.66,6.81,6.19,3.8-3.4,4.67-6.07,4.55-7-.08-.59.72-3.16,1.39-5.1.38-1.1.72-2.04.82-2.2.44-.81,5.26-2.94,7.86-2.43,2.6.52,3.17,4.14,3.69,6.48,4.94-4.72,16.29-5.72,17.3-5.57.61-2.03,2.68-1.58,2.84,1.63,2.75.26,8.23-1.7,8.32-4.37.04-.97,2.39-.89,2.85,1.48.34.23,7.92-2.03,8.7-2.05,1.01-.02,1.1,1.16,1.21,2.16,6.91-.92,13.59-7.11,14.45-7.76.85-.65,10.33-.43,11.62-.14,1.28.29,7.6,5.92,9.22,6.15,1.63.23,10.23-2.8,11.42-1.29,1.32,1.68,1.12,5.56-.33,7.08-2.43,2.53-6.52,5.07-9.66,6.98-.47.28-.76.59-1.19.83.39,1.12,2.35,4.14,2.64,4.6-3.22,1.43-4.12,9.52-4.49,10.64,1.15.65,8.62,5.74,8.88,6.32-1.44,1.99.96,6.41,1.69,7.21.72.81,10.77,4.02,11.25,5.17.86-1.33,4.59-5.84,7.65-9.8,1.84-2.37,3.31-4.65,4.06-5.59.44-.54,4.83-2.97,5.81-2.75,1.5-.87.49-6.73,1.63-7.76,1.13-1.03,8.82-3,8.87-3.78,1.25.58,6.61,1.59,7.38,2.64,1.01-1.03,3.26-8.49,4.04-9.09-4.68-1.19-9.15-4.59-10.32-5.37-.91-.61-.37-5.87-.29-6.81.08-.95,2.75-1.89,3.16-2.66.59-1.13.75-6.21,1.51-6.05.18.03,1.63-.43,3.09-.92,1.58-.54,3.19-1.12,3.6-1.21,0,.58-.84,1.88-1.29,2.33-2.87,2.87-1.31,10.31-.85,10.72.51.46,1.59,1.48,2.91,2.07,1.33-1.76.04-3.51-.78-5.27-.44-.98,1.63-1.6,2.05-2.92.74.52.77,1.12.4,3.14-.17.96,4.96,1.69,5.99,1.15,1.02-.55,3.11.6,3.54,2.3.12.43-2.66,2.91-7.9,2.59-.77-.05-1,3.06-.65,3.27,1.09-.35,9.06-1.52,13.81-2.15,1.47-.2,2.66-.34,3.21-.39-1.32-1.15-1.28-2.45-.46-2.65.21-.05,2.64-.99,2.91.03.33,1.24-.33,2.18-.84,2.67,1.8.7,15.38,3.41,19.46,4.7-.27-8.21,10.48-16.35,11.72-17.36,3.49-2.87,7.05-1.01,8.67.63.8.83-2.2,1.63-3.49,2.25.12,1.48-3.72,12.1,1.95,15.69.51-.53,4.77-1.66,5.08-2.51.32-.83,6.72-9.3,5.95-11.02-.39-.87-1.35-1.34-1.22-3.07.05-.58.38-1.18.65-1.97.8-2.36,2.28-5.35,3.78-6.22,2.55-1.48,7.59-.89,9.12.01,1.85,1.1,2.23,2.88,1.78,3.68-.74,1.37.68,2.29,1.8,2.88,2.31-1.16,2.08-3,3.34-4.61-.53-.18-3.79-2.88-2.15-6.16.56-1.12,1.41-3.48,3.95-3.42,1.25-2.09-1.67-4.98.29-5.46,1.35-.34,2.59-.38,3.66-.39,2.34,0,3.98.65,4.64,2.4.99,2.54-6.67,9.59-9.62,10.51,2.79,2.16,2.18,3.25.22,4.81,1.08,4.68.93,6.78-2.5,8.54,1,.96,4.42,3.16,4.93,3.04,4.37-.93,2.4-2.89,3.68-4.51,2.87-1.61,8.84-4.07,12.38-6.24,1.76-1.09,1.9-11.13,3.02-12.64,1.77-2.41,5.85-6.55,12.9-5.7.95-1.02,1.51-2.14,1.07-2.36-1.33-.69-10.45-16.63-8.89-18.99,1.39-2.09,6.24-18.1,7.47-22.75.15-.59.25-1.02.26-1.19.03-.22,4.29-2.34,5.69-3.2,1.65-3.59,4.08-21.06,3.31-26.01-.34-2.21-1.06-5.27-1.7-8-.52-2.27-1.01-4.31-1.14-5.49-.25-2.47,2.11-7.78,3.95-10.53,1.69-2.55,3.74-4.94,9.02-4.37.5.05,1.09,4.39,3.97,6.83.7-.66,2.45-14.89,2.08-14.97-.37-.08-1.53-1.47-1.69-1.95,4.56-1.38,1.98-6.66,6.2-6.57.71.02-.02-2.96.43-3.81,1.41-2.79,3.49-2.4,4.58-2.35.23-1.95,2.48-3.68,2.47-4.2s4.04-14.01,5.02-15.22c-.26-1.69-2.48-14.38-2.47-16.86-.52-.94-1.44-1.96-2.33-2.49-.43-2.13-.12-5.37-.19-6.26-.13-1.72-2.46-6.53-4.67-10.2-1.58-2.64-3.11-4.68-3.74-4.62-3.16.25-4.43-7.1-4.79-8.65-2.11-9.13,2.33-22.22,2.47-24.03-2.14.3-2.79,2.39-6.61,1.21-.87-.26-3.38-4.48-4.17-4.46-.77.02-5.14-2.42-5.7-2.51-1.57,2.91-5.06,14.76-4.02,16.63l-.02-.02h0Z"/>
    <path class="cls-2" d="M147.39,451.9c.75-3.93,2.17-7.08,4.14-9.81.97-1.37,1.93-2.72,3.34-3.85,2.35-1.9,11.98-7.49,13.51-7.66-.95-.1-2.53-2.59-.67-4.1-6.96-.65-4.18-5.5-2.01-7.84-2.49-.4-2.16-2.94-2.53-4-1.14-.11-2.28-.4-3.38-.81-4.4-1.6-8.2-4.99-8.55-6.21-8-.33-13.21.78-19.52,2.53.4.48,2.22,2.88,1.62,5.9-.11.55-.57,1.23-1.78,1.78-1.48.67-4.05,1.12-7.85.67-1.38-.15-4.81,2.03-5.24,1.96-2.41-.39-5.96-6.89-6.86-7.74-.88.92-4.99,3.59-6.19,4.37-4.63,3.03-3.91,8.66-5.34,9.62-1.45.97-19.4,10.61-20.95,10.32.44,1.14,1.59,1.83,2.74,1.72.95-.1,6.58-3.38,8.92-2.34-4.1,4.97,4.12,7.44,2.74,8.99-1.09,1.2-4.82-.6-4.82-.6,0,0,2.68,11.76,2.55,13.12.89.06,2.16-.26,3.29-.37.8-.07,1.54-.04,1.96.33.7.62-1.57,3.82-2.17,4.52,1.48.59,9.39,1.37,13.84,4.57-2.15-5.74-.01-9.82.49-10.41,1.83-2.21,4.19-3.54,6.91-5.06,1.72-7.83,7.72-10.19,9.39-10.79,6.41-3.84,12.72-.91,13.66.01.96.92,8.3,10.6,8.75,11.15v.03h.01Z"/>
    <path class="cls-2" d="M78.3,454.54c-3.79-.05-4.97-3.46-.83-7.35.72-.68-3.72.53-4.29.14-2.53-1.73,2.43-6.69,1.83-6.31-.59.39-8.36-.49-11.15-1.89-2.79-1.4-.93-3.46-.02-3.37,1.72.39,4.83.18,7.25-3.67,2.41-3.85.87-6.16-2.22-7.95-3.47-2.01-7.5.11-8.6,2.79-1.23-.48-3.07-.38-5.19-1.34-1.44-.64-3.04-1.79-4.57-3.87-1.53-2.1.43-9.11.72-10.44.14-.61-.26-1.17-.91-.85-2.4,1.22-6.85-1.17-7.41-.39-2.77-.65-7.82.28-8.57.9-6.28,5.29-15.52,9.36-15.33,9.2-.38.3,2.04,1.37,2.23,1.76-1.4.71-2.42,1.49-3.12,1.97-.69.49-1.06.65-1.89.63-1.38-.05-1.13-1.16-.87-2.59.25-1.43-1.78-1.98-2.52-2.01-3.72,1.74-6.13,3.13-5.09,4,.5.4,3.4,1.41,3.27,2.24-.15.94.52,2.14-.26,2.54-.38.2-1.19-.03-2.24-.5-2.62-1.15-6.46-3.55-6.86-3.23-1.03.85-1.16,6.6-.27,7.51,3.44,1.44,8.99,10.76,9.89,13.54-1.48.27-2.33.43-4.21.27-.67-.06.21-2.86.18-4.42-.02-1.03-4.71-3.44-6.16-4.26-1.46.78-1.32,5.05-.34,5.79,2.14,1.62,4.35,6.81,5.44,6.86-.78,1.37-1.8,4.99-2.11,6.89.85-.12,10.49-7.03,13.45-6.24,2.2.58-.21,2.84-1.1,3.35-.89.51-2.59,3.19.05,4.28,3.48,1.42,8.31-4.63,8.23-7.67-.01-.86-1.69-2.52-2.34-3.06-.65-.53-3.81,1.64-5.07.08-.88-1.09,2.3-2.62,2.69-3.55.28-.65,1.79-3.78-1.34-5.19,1-2.3,5.44-2.16,6.22-1.34.5.51,1.42,1.94,1.22,6.24-.15,3.16,3.94,7.12,4.36,8.68,1.09,4.07-5.73,4.74-6.24,6.22-1.2,3.39,4.94.13,5.29.85.3.61-3.97,10.91-9.08,15.89-.94.93-1.88,1.8-2.86,2.26-1.12-.55-3.06-.83-3.47-.04-.2,3.78-1.5,8.71-1.41,12.38,5.25,3.67.55,11.56-.45,11.97-1,.42-4.78-.74-4.76-.22,0,.52,2.64,8.08,5.25,7.37s6.08,1.21,6.73,3.8c2.14.63,5.73-.8,6.49-3.11-.95-1.1-2.68-2.72-4.04-4.7-1.37-1.98,1.14-5.07,1.59-6.52.19-.61,2.02-4.02,3.5-5.15.76-.58,4.12,1.47,4.55,2.46s-.53,3.24-1.78,3.61-2.47-3.1-3.58-2.71c-2.2.77-1.82,3.04.98,3.23.88,3.02,2.48,8.88,1.22,11.05-.76,1.32-5.62,8.93-5,9.07,6.48-2.34,13.73-4.52,16.69-8.47.72-.96-3.3-2.94-3.4-4.25-.09-1.31,5.12-3.31,6.08-1.29.97,2.03,2.54,3.26,3.54,4,.56-.77,4.78-4.46,4.76-8.06,1.47-1.72,4.3-8.23,3.43-9.53-.28-10.76,11.43-26.23,18.54-33.91,2.53-2.74,4.8-3.94,5.29-4.34v-.03h0Z"/>
  </g>
  <path class="cls-2" d="M352.26,490.01l2.78,4.1,5.86-3.61,4.16-5.88s3.53,1.55,2.04,4.55c-7.2,14.5-18.98,13.02-18.52,15.3.46,2.28-.96,4.04-.96,4.04,0,0-7.29-.4-8.32.92s.72,3.92-1.13,4.73c-1.84.81-7.7,4.42-7.8,2.21-.1-2.21,2.04-8.58,2.04-8.58,0,0,2.94-.55,4.15-4.32,1.21-3.77,2.69-4.73,3.74-5.23,1.06-.5,5.34-.11,5.82-3.43s-.94-5.53-.94-5.53c0,0-1.21-3.1-.4-2.91.8.19.82-1.68.82-1.68,1.42,1.57,6.66,5.33,6.66,5.33h0Z"/>
  <path class="cls-1" d="M308.47,531.85s-5.12-60.34,6.52-66.73c15.57-8.55,64.83-4.62,64.83-4.62"/>
</svg>